<?xml version="1.0" encoding="UTF-8" standalone="no"?>
<!DOCTYPE svg PUBLIC "-//W3C//DTD SVG 1.1//EN"
 "http://www.w3.org/Graphics/SVG/1.1/DTD/svg11.dtd">
<!-- Generated by graphviz version 2.40.1 (20161225.0304)
 -->
<!-- Title: REST methods Pages: 1 -->
<svg width="250pt" height="218pt"
 viewBox="0.00 0.00 250.00 218.00" xmlns="http://www.w3.org/2000/svg" xmlns:xlink="http://www.w3.org/1999/xlink">
<g id="graph0" class="graph" transform="scale(1 1) rotate(0) translate(4 214)">
<title>REST methods</title>
<polygon fill="#ffffff" stroke="transparent" points="-4,4 -4,-214 246,-214 246,4 -4,4"/>
<!-- Node4 -->
<g id="node1" class="node">
<title>Node4</title>
<g id="a_node1"><a xlink:href="group__REST__users.html" target="_top" xlink:title="Methods related to users. ">
<polygon fill="#ffffff" stroke="#000000" points="137.5,-190.5 137.5,-209.5 227.5,-209.5 227.5,-190.5 137.5,-190.5"/>
<text text-anchor="middle" x="182.5" y="-197.5" font-family="Helvetica,sans-Serif" font-size="10.00" fill="#000000">Users methods</text>
</a>
</g>
</g>
<!-- Node5 -->
<g id="node2" class="node">
<title>Node5</title>
<g id="a_node2"><a xlink:href="group__REST__invites.html" target="_top" xlink:title="Methods related to invites. ">
<polygon fill="#ffffff" stroke="#000000" points="130.5,-152.5 130.5,-171.5 234.5,-171.5 234.5,-152.5 130.5,-152.5"/>
<text text-anchor="middle" x="182.5" y="-159.5" font-family="Helvetica,sans-Serif" font-size="10.00" fill="#000000">Invites operations</text>
</a>
</g>
</g>
<!-- Node2 -->
<g id="node3" class="node">
<title>Node2</title>
<g id="a_node3"><a xlink:href="group__REST__messages.html" target="_top" xlink:title="Methods related to messages. ">
<polygon fill="#ffffff" stroke="#000000" points="123,-114.5 123,-133.5 242,-133.5 242,-114.5 123,-114.5"/>
<text text-anchor="middle" x="182.5" y="-121.5" font-family="Helvetica,sans-Serif" font-size="10.00" fill="#000000">Messages operations</text>
</a>
</g>
</g>
<!-- Node3 -->
<g id="node4" class="node">
<title>Node3</title>
<g id="a_node4"><a xlink:href="group__REST__guilds.html" target="_top" xlink:title="Methods related to guilds. ">
<polygon fill="#ffffff" stroke="#000000" points="138.5,-76.5 138.5,-95.5 226.5,-95.5 226.5,-76.5 138.5,-76.5"/>
<text text-anchor="middle" x="182.5" y="-83.5" font-family="Helvetica,sans-Serif" font-size="10.00" fill="#000000">Guild methods</text>
</a>
</g>
</g>
<!-- Node6 -->
<g id="node5" class="node">
<title>Node6</title>
<g id="a_node5"><a xlink:href="group__REST__webhooks.html" target="_top" xlink:title="Webhook operations">
<polygon fill="#ffffff" stroke="#000000" points="124,-38.5 124,-57.5 241,-57.5 241,-38.5 124,-38.5"/>
<text text-anchor="middle" x="182.5" y="-45.5" font-family="Helvetica,sans-Serif" font-size="10.00" fill="#000000">Webhook operations</text>
</a>
</g>
</g>
<!-- Node0 -->
<g id="node6" class="node">
<title>Node0</title>
<polygon fill="#bfbfbf" stroke="#000000" points="0,-95.5 0,-114.5 87,-114.5 87,-95.5 0,-95.5"/>
<text text-anchor="middle" x="43.5" y="-102.5" font-family="Helvetica,sans-Serif" font-size="10.00" fill="#000000">REST methods</text>
</g>
<!-- Node0&#45;&gt;Node4 -->
<g id="edge4" class="edge">
<title>Node0&#45;&gt;Node4</title>
<path fill="none" stroke="#000000" d="M57.7823,-122.7089C72.4775,-139.8549 96.858,-165.4717 123,-181 129.3397,-184.7657 136.5095,-187.8715 143.6212,-190.4022"/>
<polygon fill="#000000" stroke="#000000" points="60.1184,-120.0459 51.0225,-114.6131 54.7452,-124.5324 60.1184,-120.0459"/>
</g>
<!-- Node0&#45;&gt;Node5 -->
<g id="edge5" class="edge">
<title>Node0&#45;&gt;Node5</title>
<path fill="none" stroke="#000000" d="M71.0965,-119.3379C86.2042,-126.8938 105.3852,-136.0157 123,-143 131.5682,-146.3973 141.0062,-149.6333 149.7917,-152.4405"/>
<polygon fill="#000000" stroke="#000000" points="72.3168,-116.0327 61.8142,-114.637 69.1541,-122.2775 72.3168,-116.0327"/>
</g>
<!-- Node0&#45;&gt;Node2 -->
<g id="edge2" class="edge">
<title>Node0&#45;&gt;Node2</title>
<path fill="none" stroke="#000000" d="M97.1354,-112.3315C105.5248,-113.4782 114.24,-114.6695 122.7558,-115.8335"/>
<polygon fill="#000000" stroke="#000000" points="97.481,-108.8462 87.0991,-110.9596 96.5329,-115.7817 97.481,-108.8462"/>
</g>
<!-- Node0&#45;&gt;Node3 -->
<g id="edge3" class="edge">
<title>Node0&#45;&gt;Node3</title>
<path fill="none" stroke="#000000" d="M97.2328,-97.6552C110.7461,-95.8081 125.0989,-93.8462 138.0985,-92.0693"/>
<polygon fill="#000000" stroke="#000000" points="96.5329,-94.2183 87.0991,-99.0404 97.481,-101.1538 96.5329,-94.2183"/>
</g>
<!-- Node0&#45;&gt;Node6 -->
<g id="edge6" class="edge">
<title>Node0&#45;&gt;Node6</title>
<path fill="none" stroke="#000000" d="M71.0965,-90.6621C86.2042,-83.1062 105.3852,-73.9843 123,-67 131.5682,-63.6027 141.0062,-60.3667 149.7917,-57.5595"/>
<polygon fill="#000000" stroke="#000000" points="69.1541,-87.7225 61.8142,-95.363 72.3168,-93.9673 69.1541,-87.7225"/>
</g>
<!-- Node1 -->
<g id="node7" class="node">
<title>Node1</title>
<g id="a_node7"><a xlink:href="group__REST__channels.html" target="_top" xlink:title="Methods related to channels. ">
<polygon fill="#ffffff" stroke="#000000" points="127,-.5 127,-19.5 238,-19.5 238,-.5 127,-.5"/>
<text text-anchor="middle" x="182.5" y="-7.5" font-family="Helvetica,sans-Serif" font-size="10.00" fill="#000000">Channel operations</text>
</a>
</g>
</g>
<!-- Node0&#45;&gt;Node1 -->
<g id="edge1" class="edge">
<title>Node0&#45;&gt;Node1</title>
<path fill="none" stroke="#000000" d="M57.7823,-87.2911C72.4775,-70.1451 96.858,-44.5283 123,-29 129.3397,-25.2343 136.5095,-22.1285 143.6212,-19.5978"/>
<polygon fill="#000000" stroke="#000000" points="54.7452,-85.4676 51.0225,-95.3869 60.1184,-89.9541 54.7452,-85.4676"/>
</g>
</g>
</svg>
